<svg width="96" height="96" viewBox="0 0 96 96" fill="none" xmlns="http://www.w3.org/2000/svg">
<g clip-path="url(#clip0_7_23)">
<g opacity="0.95">
<path d="M48 8L64 24L76 56L60 80L32 76L16 52L24 24L48 8Z" fill="url(#paint0_linear_7_23)" stroke="black" stroke-width="14"/>
<path opacity="0.5" d="M48 8L64 24L48 36L32 24L48 8Z" fill="white"/>
<path opacity="0.4" d="M32 24L48 36L40 52L24 24H32Z" fill="#DFDFDF"/>
<path opacity="0.3" d="M48 36L64 24L76 56L56 64L48 36Z" fill="#3A2A4D"/>
<path opacity="0.25" d="M24 24L40 52L32 76L16 52L24 24Z" fill="#B5B5B5"/>
<path opacity="0.3" d="M40 52L56 64L48 80L32 76L40 52Z" fill="#464646"/>
</g>
</g>
<defs>
<linearGradient id="paint0_linear_7_23" x1="16" y1="8" x2="86.8197" y2="67.0164" gradientUnits="userSpaceOnUse">
<stop offset="0.408654" stop-color="white"/>
<stop offset="1" stop-color="#2F2F2F"/>
</linearGradient>
<clipPath id="clip0_7_23">
<rect width="96" height="96" fill="white"/>
</clipPath>
</defs>
</svg>
